<?xml version="1.0" encoding="utf-8"?>
<!-- Generator: Adobe Illustrator 17.0.0, SVG Export Plug-In . SVG Version: 6.00 Build 0)  -->
<!DOCTYPE svg PUBLIC "-//W3C//DTD SVG 1.1//EN" "http://www.w3.org/Graphics/SVG/1.1/DTD/svg11.dtd">
<svg version="1.1" id="Layer_1" xmlns="http://www.w3.org/2000/svg" xmlns:xlink="http://www.w3.org/1999/xlink" x="0px" y="0px"
	 width="3456px" height="2592px" viewBox="0 0 3456 2592" enable-background="new 0 0 3456 2592" xml:space="preserve">
<polyline fill="#FFFFFF" points="1516,700 2576,1156.428 1784,1760 1254.389,2566.182 932,1654.705 1488,700 "/>
<linearGradient id="SVGID_1_" gradientUnits="userSpaceOnUse" x1="5580.7617" y1="1716.8655" x2="913.1813" y2="1886.9991">
	<stop  offset="0.1045" style="stop-color:#000000"/>
	<stop  offset="0.9181" style="stop-color:#FFFFFF"/>
</linearGradient>
<path fill="url(#SVGID_1_)" d="M2497.379,1171.158c0,0-3.263,3.107-9.63,8.619c-51.02,44.175-301.322,242.845-668.466,235.33
	l81.455,24.664c0,0-603.275,128.787-645.454,1092.854c0,0,387.197-694.226,625.248-740.835c0,0,29.327-141.251,241.664-224.557
	c212.338-83.306,375.054-304.77,350.525-389.059"/>
<linearGradient id="SVGID_2_" gradientUnits="userSpaceOnUse" x1="615.6588" y1="1310.6865" x2="3164.3374" y2="1310.6865">
	<stop  offset="0.103" style="stop-color:#E02515"/>
	<stop  offset="0.9186" style="stop-color:#FAA531"/>
</linearGradient>
<path fill="url(#SVGID_2_)" d="M1863.86,1786.874c84.955-173.538,246.359-197.962,388.898-304.566
	c61.554-46.036,109.256-97.075,149.597-161.709c24.771-39.847,51.188-83.749,64.408-128.395
	c-57.786-33.81-162.665-13.33-230.389-22.32c-33.047-4.387-78.009-6.66-106.482-26.034
	c-188.164-128.028-410.652-116.746-505.517-368.926c-259.231,284.52-378.837,732.47-394.48,1103.936
	c-6.139,145.786,4.939,291.431,4.833,437.21c-0.061,83.342-12.972,171.14,19.66,250.112
	c-200.417-128.133-300.803-360.997-418.582-557.95c-125.321-209.564-243.516-433.743-216.171-686.249
	c24.41-225.405,158.197-461.091,337.128-601.568c180.25-141.512,415.886-182.234,638.626-198.091
	c121.944-8.681,244.103-8.575,366.264-10.377c219.039-3.231,477.766,13.256,679.038-89.747
	c149.838-76.681,192.671-220.916,249.444-367.008c-5.426,13.962,89.575,134.172,98.546,148.572
	c41.339,66.358,80.209,134.347,108.318,207.517c96.508,251.22,79.841,535.336,9.414,791.245
	c-49.177,178.694-173.103,307.654-316.839,420.726c-157.518,123.914-260.14,135.363-447.31,129.092
	c-38.96-1.305-488.099,16.025-486.426,36.791c0.038,0.477,0.239,0.877,0.601,1.2c0.138-0.128,3.921,2.88,4.625,2.363
	C1861.987,1790.737,1862.919,1788.797,1863.86,1786.874"/>
<path fill="none" stroke="#FFFFFF" stroke-miterlimit="10" d="M1258.982,2522.771"/>
<path fill="#E02515" d="M1618.483,752.257c-226.892,293.118-440.619,606.54-561.345,959.864
	c-33.958,99.383-59.964,201.317-60.013,307.222c-0.043,115.397,97.338,221.396,142.014,322.693
	c31.615,71.683,63.189,143.385,94.694,215.117c0,0-88.766-1370.932,379.719-1790.102"/>
<path fill="#FAA531" d="M2910.513,116.105c0,0,108.491,715.055-221.914,1104.636s374.787,88.765,374.787,88.765
	S3305.026,579.658,2910.513,116.105z"/>
<linearGradient id="SVGID_3_" gradientUnits="userSpaceOnUse" x1="2465.2979" y1="1186.0608" x2="2467.8545" y2="1186.0608">
	<stop  offset="0.103" style="stop-color:#E02515"/>
	<stop  offset="0.9186" style="stop-color:#FAA531"/>
</linearGradient>
<path fill="url(#SVGID_3_)" d="M2467.854,1182.178l-2.557,7.765L2467.854,1182.178z"/>
<linearGradient id="SVGID_4_" gradientUnits="userSpaceOnUse" x1="2471.6172" y1="1181.2899" x2="2471.6172" y2="1181.2899">
	<stop  offset="0.103" style="stop-color:#E02515"/>
	<stop  offset="0.9186" style="stop-color:#FAA531"/>
</linearGradient>
<path fill="url(#SVGID_4_)" d="M2471.617,1181.29"/>
<linearGradient id="SVGID_5_" gradientUnits="userSpaceOnUse" x1="2467.8545" y1="1175.1257" x2="2467.8545" y2="1175.1257">
	<stop  offset="0.103" style="stop-color:#E02515"/>
	<stop  offset="0.9186" style="stop-color:#FAA531"/>
</linearGradient>
<path fill="url(#SVGID_5_)" d="M2467.854,1175.126"/>
<path fill="#E02515" d="M1885.396,1131.567c0,0,88.765,35.136,133.148,24.041C2062.927,1144.512,1939.518,1234.06,1885.396,1131.567
	z"/>
<linearGradient id="SVGID_6_" gradientUnits="userSpaceOnUse" x1="2289.155" y1="1902.5088" x2="2289.155" y2="1902.5088">
	<stop  offset="0.1025" style="stop-color:#000000"/>
	<stop  offset="0.9186" style="stop-color:#FFFFFF"/>
</linearGradient>
<path fill="url(#SVGID_6_)" d="M2289.155,1902.509"/>
<linearGradient id="SVGID_7_" gradientUnits="userSpaceOnUse" x1="2467.8545" y1="1175.1257" x2="2467.8545" y2="1175.1257">
	<stop  offset="0.103" style="stop-color:#E02515"/>
	<stop  offset="0.9186" style="stop-color:#FAA531"/>
</linearGradient>
<path fill="url(#SVGID_7_)" d="M2467.854,1175.126"/>
</svg>
